            <svg class="logo" id="logo" xmlns="http://www.w3.org/2000/svg" xml:space="preserve" width="36.0983mm" height="23.9079mm" version="1.1" style="shape-rendering:geometricPrecision; text-rendering:geometricPrecision; image-rendering:optimizeQuality; fill-rule:evenodd; clip-rule:evenodd"
viewBox="0 0 888.46 588.43"
 xmlns:xlink="http://www.w3.org/1999/xlink"
 xmlns:xodm="http://www.corel.com/coreldraw/odm/2003">
 <g id="Layer_x0020_1" fill="#FFF">
  <metadata id="CorelCorpID_0Corel-Layer"/>
  <path d="M230.42 560.5l59.1 -109.45c16.83,-31.15 17.57,-31.27 35.25,1l65.74 119.93c10.24,18.69 11.3,16.28 38.58,16.28l30.65 0c30.79,
  0 31.76,3.15 20.14,-18.71l-27.52 -51.8c-40.36,-76.4 -80.48,-152.94 -123.67,-227.74 -17.45,-30.24 -25.76,-31.46 -44.36,0.76l-119.89 222.66c-3.05,
  7.96 -10.76,13.62 -19.8,13.62 -11.7,0 -21.2,-9.5 -21.2,-21.21 0,-3.43 0.82,-6.67 2.27,-9.53l0.02 -0.03c0.14,-0.27 0.28,-0.54 0.42,-0.8l152.4 -285.43c35.3
  ,-66.11 23.66,-64.8 59.42,1.6l181 336.07c26.64,45.7 24.89,40.57 91.24,40.57l22.55 0 -37.55 -69.41c-1.21,-1.57 -2.2,-3.32 -2.93,-5.19l-101.79 -188.32 -2.01 -3.71 -157.68 -291.71c-23.53,-39.98 -23.79,-39.57 -46.97,-0.64l-274.52 514.75c-25.38,49.53 0.57,44.24 84.81,44.24l39.2 0 39.19 0 26.55 0c17.5,-0.67 19.84,-4.96 31.35,-27.76zm221.95 -42.75l0 0zm36.11 -196.12l0 0z"/>
  <path d="M535.9 332.03c7.87,-14.06 15.81,-28.07 23.88,-42.02 17.45,-30.24 25.77,-31.46 44.36,0.76l119.89 222.66c3.05,7.96 10.77,13.62 19.79,13.62 11.72,0 21.21,-9.5 21.21,-21.21 0,-3.43 -0.82,-6.67 -2.27,-9.53l-0.02 -0.03c-0.14,-0.27 -0.28,-0.54 -0.43,-0.8l-152.39 -285.43c-35.29,-66.11 -23.66,-64.8 -59.42,1.6l-39.63 73.59 -45.35 -84.82 92.14 -170.47c23.54,-39.98 23.79,-39.57 46.97,-0.64l274.51 514.75c25.39,49.53 -0.56,44.24 -84.8,44.24l-39.2 0 -39.19 0 -26.55 0c-17.5,-0.67 -19.84,-4.96 -31.35,-27.76l-122.15 -228.47z"/>
 </g>
</svg>